<mxfile host="app.diagrams.net" modified="2023-11-23T11:23:02.365Z" agent="Mozilla/5.0 (Windows NT 10.0; Win64; x64) AppleWebKit/537.36 (KHTML, like Gecko) Chrome/119.0.0.0 Safari/537.36" version="22.1.3" etag="53KX81_L6qMwffttUpoT" type="github">
  <diagram name="Page-1" id="dg6jod27ldCsWbdMvRSa">
    <mxGraphModel>
      <root>
        <mxCell id="0" />
        <mxCell id="1" parent="0" />
      </root>
    </mxGraphModel>
  </diagram>
</mxfile>
